<svg width="1920" height="1047" viewBox="0 0 1920 1047" fill="none" xmlns="http://www.w3.org/2000/svg">
<g style="mix-blend-mode:screen" opacity="0.06" clip-path="url(#clip0_117_20276)">
<path d="M1968 888.858V123.579C1832.03 164.99 1731.51 322.48 1733.46 509.316C1735.09 693.218 1834.63 846.469 1968 888.858Z" fill="url(#paint0_radial_117_20276)"/>
<path d="M1863.91 150.969H1967.02V149.339H1864.56L1720.78 5.21729L1719.8 6.52155L1863.91 150.969Z" fill="#969696"/>
<path d="M1720.45 12.3905C1723.86 12.3905 1726.63 9.61682 1726.63 6.19527C1726.63 2.77371 1723.86 0 1720.45 0C1717.04 0 1714.27 2.77371 1714.27 6.19527C1714.27 9.61682 1717.04 12.3905 1720.45 12.3905Z" fill="#969696"/>
<path d="M1635.22 1041.78L1727.28 949.507H1911.07L1967.02 893.097V890.814L1910.42 947.876H1726.63L1634.57 1040.15H1468.35V1041.78H1635.22Z" fill="#969696"/>
<path d="M1468.67 1034.61C1465.42 1034.61 1462.49 1037.22 1462.49 1040.81C1462.49 1044.07 1465.1 1047 1468.67 1047C1471.93 1047 1474.85 1044.39 1474.85 1040.81C1474.85 1037.54 1471.93 1034.61 1468.67 1034.61Z" fill="#969696"/>
<path d="M1851.87 253.354L1898.39 206.726H1967.02V205.096H1897.74L1851.22 251.723H1499.58V253.354H1851.87Z" fill="#969696"/>
<path d="M1499.9 258.571C1503.32 258.571 1506.08 255.797 1506.08 252.376C1506.08 248.954 1503.32 246.18 1499.9 246.18C1496.49 246.18 1493.72 248.954 1493.72 252.376C1493.72 255.797 1496.49 258.571 1499.9 258.571Z" fill="#969696"/>
<path d="M1861.95 679.197L1932.54 749.953H1967.02V748.323H1933.19L1862.6 677.567H1650.51V679.197H1861.95Z" fill="#969696"/>
<path d="M1650.84 672.349C1647.59 672.349 1644.66 674.958 1644.66 678.545C1644.66 681.805 1647.26 684.74 1650.84 684.74C1654.09 684.74 1657.02 682.131 1657.02 678.545C1657.02 674.958 1654.42 672.349 1650.84 672.349Z" fill="#969696"/>
<path d="M1862.6 310.415L1929.94 242.593H1967.02V240.963H1929.29L1861.95 308.785H1597.17V310.415H1862.6Z" fill="#969696"/>
<path d="M1597.49 315.632C1594.24 315.632 1591.31 313.024 1591.31 309.437C1591.31 306.176 1593.91 303.242 1597.49 303.242C1600.74 303.242 1603.67 305.85 1603.67 309.437C1603.67 313.024 1601.07 315.632 1597.49 315.632Z" fill="#969696"/>
<path d="M1618.31 671.697L1687.6 602.571H1967.02V600.941H1686.95L1617.33 670.719L1618.31 671.697Z" fill="#969696"/>
<path d="M1613.76 666.48C1611.48 668.763 1611.48 672.675 1613.76 675.284C1616.03 677.566 1619.94 677.566 1622.54 675.284C1624.82 673.001 1624.82 669.089 1622.54 666.48C1619.94 664.198 1616.03 664.198 1613.76 666.48Z" fill="#969696"/>
<path d="M1535.68 366.825H1834.3L1906.19 294.438H1967.02V292.808H1905.54L1833.65 365.195H1536.34L1448.51 277.157L1447.2 278.135L1535.68 366.825Z" fill="#969696"/>
<path d="M1452.41 273.57C1450.13 271.288 1446.23 271.288 1443.63 273.57C1441.35 275.852 1441.35 279.765 1443.63 282.374C1445.9 284.656 1449.81 284.656 1452.41 282.374C1454.69 279.765 1454.69 275.852 1452.41 273.57Z" fill="#969696"/>
<path d="M1802.1 434.321L1911.4 324.763H1967.02V323.132H1910.75L1800.8 433.343L1802.1 434.321Z" fill="#969696"/>
<path d="M1797.55 429.43C1795.27 431.713 1795.27 435.625 1797.55 438.234C1799.82 440.516 1803.73 440.516 1806.33 438.234C1808.61 435.951 1808.61 432.039 1806.33 429.43C1803.73 426.821 1799.82 426.821 1797.55 429.43Z" fill="#969696"/>
<path d="M1942.95 540.619L1967.02 565.074V562.791L1943.6 538.988H1521.05V540.619H1942.95Z" fill="#969696"/>
<path d="M1521.37 533.771C1518.12 533.771 1515.19 536.38 1515.19 539.966C1515.19 543.553 1517.79 546.161 1521.37 546.161C1524.62 546.161 1527.55 543.553 1527.55 539.966C1527.55 536.38 1524.95 533.771 1521.37 533.771Z" fill="#969696"/>
<path d="M1967.02 377.585H1909.12V379.215H1967.02V377.585Z" fill="#969696"/>
<path d="M1909.45 372.368C1906.19 372.368 1903.27 374.976 1903.27 378.563C1903.27 381.824 1905.87 384.759 1909.45 384.759C1912.7 384.759 1915.63 382.15 1915.63 378.563C1915.63 375.303 1912.7 372.368 1909.45 372.368Z" fill="#969696"/>
<path d="M1967.02 409.539H1893.18V411.17H1967.02V409.539Z" fill="#969696"/>
<path d="M1893.51 416.387C1896.92 416.387 1899.69 413.613 1899.69 410.192C1899.69 406.77 1896.92 403.996 1893.51 403.996C1890.09 403.996 1887.33 406.77 1887.33 410.192C1887.33 413.613 1890.09 416.387 1893.51 416.387Z" fill="#969696"/>
<path d="M1596.84 697.782H1526.58V699.413H1596.84V697.782Z" fill="#969696"/>
<path d="M1596.51 692.24C1599.77 692.24 1602.7 694.848 1602.7 698.435C1602.7 701.695 1600.09 704.63 1596.51 704.63C1593.26 704.63 1590.33 702.021 1590.33 698.435C1590.33 695.174 1592.94 692.24 1596.51 692.24Z" fill="#969696"/>
<path d="M1526.9 692.24C1523.65 692.24 1520.72 694.848 1520.72 698.435C1520.72 701.695 1523.32 704.63 1526.9 704.63C1530.15 704.63 1533.08 702.021 1533.08 698.435C1532.76 695.174 1530.15 692.24 1526.9 692.24Z" fill="#969696"/>
<path d="M1939.05 637.134L1967.02 665.176V662.893L1939.7 635.504H1711.34V637.134H1939.05Z" fill="#969696"/>
<path d="M1711.67 642.351C1715.08 642.351 1717.85 639.578 1717.85 636.156C1717.85 632.734 1715.08 629.961 1711.67 629.961C1708.26 629.961 1705.49 632.734 1705.49 636.156C1705.49 639.578 1708.26 642.351 1711.67 642.351Z" fill="#969696"/>
<path d="M1635.88 1000.05L1753.63 882.01H1888.3L1965.07 805.385H1967.02V803.754H1964.42L1887.65 880.38H1752.98L1635.22 998.416H1481.69V1000.05H1635.88Z" fill="#969696"/>
<path d="M1481.69 992.873C1478.43 992.873 1475.51 995.482 1475.51 999.068C1475.51 1002.33 1478.11 1005.26 1481.69 1005.26C1485.26 1005.26 1487.87 1002.66 1487.87 999.068C1487.87 995.808 1485.26 992.873 1481.69 992.873Z" fill="#969696"/>
<path d="M1475.18 819.405L1565.94 728.433H1837.56L1890.25 781.256H1967.02V779.625H1890.91L1838.21 726.802H1565.29L1473.88 818.427L1475.18 819.405Z" fill="#969696"/>
<path d="M1470.3 814.188C1468.02 816.47 1468.02 820.383 1470.3 822.992C1472.58 825.274 1476.48 825.274 1479.08 822.992C1481.36 820.709 1481.36 816.796 1479.08 814.188C1476.81 811.905 1472.9 811.905 1470.3 814.188Z" fill="#969696"/>
<path d="M1721.1 822.014H1876.92V823.644H1721.75L1626.77 919.182H1499.25L1454.04 874.185L1455.34 872.88L1499.9 917.551H1626.12L1721.1 822.014Z" fill="#969696"/>
<path d="M1876.59 829.187C1880.01 829.187 1882.77 826.414 1882.77 822.992C1882.77 819.571 1880.01 816.797 1876.59 816.797C1873.18 816.797 1870.41 819.571 1870.41 822.992C1870.41 826.414 1873.18 829.187 1876.59 829.187Z" fill="#969696"/>
<path d="M1459.24 869.294C1456.96 867.012 1453.06 867.012 1450.46 869.294C1448.18 871.577 1448.18 875.489 1450.46 878.098C1452.73 880.38 1456.64 880.38 1459.24 878.098C1461.52 875.489 1461.52 871.903 1459.24 869.294Z" fill="#969696"/>
<path d="M1662.87 782.56H1823.89V784.19H1663.85L1590.98 856.903H1526.58V855.273H1590.33L1662.87 782.56Z" fill="#969696"/>
<path d="M1823.57 777.017C1826.82 777.017 1829.75 779.626 1829.75 783.212C1829.75 786.473 1827.15 789.408 1823.57 789.408C1819.99 789.408 1817.39 786.799 1817.39 783.212C1817.71 779.952 1820.32 777.017 1823.57 777.017Z" fill="#969696"/>
<path d="M1526.9 850.056C1523.65 850.056 1520.72 852.665 1520.72 856.252C1520.72 859.512 1523.32 862.447 1526.9 862.447C1530.15 862.447 1533.08 859.838 1533.08 856.252C1532.76 852.665 1530.15 850.056 1526.9 850.056Z" fill="#969696"/>
<path d="M1575.7 581.051H1884.72V582.682H1576.35L1459.24 700.392L1458.26 699.087L1575.7 581.051Z" fill="#969696"/>
<path d="M1884.4 575.834C1887.65 575.834 1890.58 578.442 1890.58 582.029C1890.58 585.29 1887.98 588.224 1884.4 588.224C1881.15 588.224 1878.22 585.616 1878.22 582.029C1878.54 578.442 1881.15 575.834 1884.4 575.834Z" fill="#969696"/>
<path d="M1454.69 695.174C1452.41 697.457 1452.41 701.369 1454.69 703.978C1456.96 706.26 1460.87 706.26 1463.47 703.978C1465.75 701.696 1465.75 697.783 1463.47 695.174C1460.87 692.566 1456.96 692.566 1454.69 695.174Z" fill="#969696"/>
<path d="M1943.93 502.469L1967.02 525.946V523.663L1944.58 500.839H1494.7V502.469H1943.93Z" fill="#969696"/>
<path d="M1495.02 508.012C1498.44 508.012 1501.2 505.238 1501.2 501.817C1501.2 498.395 1498.44 495.621 1495.02 495.621C1491.61 495.621 1488.84 498.395 1488.84 501.817C1488.84 505.238 1491.61 508.012 1495.02 508.012Z" fill="#969696"/>
<path d="M1940.68 463.34L1967.02 489.752V487.143L1941.65 461.71H1470.95V463.34H1940.68Z" fill="#969696"/>
<path d="M1471.28 468.558C1474.69 468.558 1477.46 465.784 1477.46 462.362C1477.46 458.941 1474.69 456.167 1471.28 456.167C1467.86 456.167 1465.1 458.941 1465.1 462.362C1465.1 465.784 1467.86 468.558 1471.28 468.558Z" fill="#969696"/>
<path d="M1824.22 185.532H1967.02V183.901H1824.87L1698.33 57.0615L1697.36 58.0397L1824.22 185.532Z" fill="#969696"/>
<path d="M1698.01 63.9091C1701.42 63.9091 1704.19 61.1354 1704.19 57.7138C1704.19 54.2923 1701.42 51.5186 1698.01 51.5186C1694.59 51.5186 1691.83 54.2923 1691.83 57.7138C1691.83 61.1354 1694.59 63.9091 1698.01 63.9091Z" fill="#969696"/>
<path d="M1461.19 103.689H1686.95L1768.92 185.858L1767.62 186.836L1686.3 105.32H1461.19V103.689Z" fill="#969696"/>
<path d="M1772.5 181.946C1774.78 184.228 1774.78 188.141 1772.5 190.749C1770.22 193.032 1766.32 193.032 1763.72 190.749C1761.44 188.467 1761.44 184.554 1763.72 181.946C1765.99 179.337 1769.9 179.337 1772.5 181.946Z" fill="#969696"/>
<path d="M1461.19 110.537C1464.61 110.537 1467.37 107.763 1467.37 104.342C1467.37 100.92 1464.61 98.1462 1461.19 98.1462C1457.78 98.1462 1455.01 100.92 1455.01 104.342C1455.01 107.763 1457.78 110.537 1461.19 110.537Z" fill="#969696"/>
</g>
<g style="mix-blend-mode:screen" opacity="0.06" clip-path="url(#clip1_117_20276)">
<path d="M-47.9999 888.858V123.579C87.9729 164.99 188.489 322.48 186.537 509.316C184.91 693.218 85.3705 846.469 -47.9999 888.858Z" fill="url(#paint1_radial_117_20276)"/>
<path d="M56.0941 150.969H-47.024V149.339H55.4435L199.223 5.21729L200.199 6.52155L56.0941 150.969Z" fill="#969696"/>
<path d="M199.549 12.3905C196.135 12.3905 193.368 9.61682 193.368 6.19527C193.368 2.77371 196.135 0 199.549 0C202.962 0 205.729 2.77371 205.729 6.19527C205.729 9.61682 202.962 12.3905 199.549 12.3905Z" fill="#969696"/>
<path d="M284.776 1041.78L192.717 949.507H8.92648L-47.024 893.097V890.814L9.57706 947.876H193.368L285.426 1040.15H451.651V1041.78H284.776Z" fill="#969696"/>
<path d="M451.326 1034.61C454.579 1034.61 457.507 1037.22 457.507 1040.81C457.507 1044.07 454.904 1047 451.326 1047C448.073 1047 445.145 1044.39 445.145 1040.81C445.145 1037.54 448.073 1034.61 451.326 1034.61Z" fill="#969696"/>
<path d="M68.1299 253.354L21.6129 206.726H-47.024V205.096H22.2635L68.7805 251.723H420.423V253.354H68.1299Z" fill="#969696"/>
<path d="M420.098 258.571C416.684 258.571 413.917 255.797 413.917 252.376C413.917 248.954 416.684 246.18 420.098 246.18C423.511 246.18 426.278 248.954 426.278 252.376C426.278 255.797 423.511 258.571 420.098 258.571Z" fill="#969696"/>
<path d="M58.0458 679.197L-12.5429 749.953H-47.024V748.323H-13.1935L57.3952 677.567H269.487V679.197H58.0458Z" fill="#969696"/>
<path d="M269.161 672.349C272.414 672.349 275.342 674.958 275.342 678.545C275.342 681.805 272.74 684.74 269.161 684.74C265.908 684.74 262.981 682.131 262.981 678.545C262.981 674.958 265.583 672.349 269.161 672.349Z" fill="#969696"/>
<path d="M57.3952 310.415L-9.94058 242.593H-47.024V240.963H-9.29001L58.0458 308.785H322.835V310.415H57.3952Z" fill="#969696"/>
<path d="M322.51 315.632C325.763 315.632 328.69 313.024 328.69 309.437C328.69 306.176 326.088 303.242 322.51 303.242C319.257 303.242 316.329 305.85 316.329 309.437C316.329 313.024 318.931 315.632 322.51 315.632Z" fill="#969696"/>
<path d="M301.691 671.697L232.403 602.571H-47.024V600.941H233.054L302.667 670.719L301.691 671.697Z" fill="#969696"/>
<path d="M306.245 666.48C308.522 668.763 308.522 672.675 306.245 675.284C303.968 677.566 300.064 677.566 297.462 675.284C295.185 673.001 295.185 669.089 297.462 666.48C300.064 664.198 303.968 664.198 306.245 666.48Z" fill="#969696"/>
<path d="M384.315 366.825H85.6958L13.8059 294.438H-47.024V292.808H14.4565L86.3464 365.195H383.665L471.494 277.157L472.795 278.135L384.315 366.825Z" fill="#969696"/>
<path d="M467.591 273.57C469.868 271.288 473.771 271.288 476.374 273.57C478.651 275.852 478.651 279.765 476.374 282.374C474.097 284.656 470.193 284.656 467.591 282.374C465.314 279.765 465.314 275.852 467.591 273.57Z" fill="#969696"/>
<path d="M117.9 434.321L8.60114 324.763H-47.024V323.132H9.25172L119.201 433.343L117.9 434.321Z" fill="#969696"/>
<path d="M122.454 429.43C124.731 431.713 124.731 435.625 122.454 438.234C120.177 440.516 116.273 440.516 113.671 438.234C111.394 435.951 111.394 432.039 113.671 429.43C116.273 426.821 120.177 426.821 122.454 429.43Z" fill="#969696"/>
<path d="M-22.9524 540.619L-47.0241 565.074V562.791L-23.603 538.988H398.954V540.619H-22.9524Z" fill="#969696"/>
<path d="M398.628 533.771C401.881 533.771 404.809 536.38 404.809 539.966C404.809 543.553 402.207 546.161 398.628 546.161C395.375 546.161 392.448 543.553 392.448 539.966C392.448 536.38 395.05 533.771 398.628 533.771Z" fill="#969696"/>
<path d="M-47.024 377.585H10.8783V379.215H-47.024V377.585Z" fill="#969696"/>
<path d="M10.553 372.368C13.8059 372.368 16.7335 374.976 16.7335 378.563C16.7335 381.824 14.1312 384.759 10.553 384.759C7.30004 384.759 4.37238 382.15 4.37238 378.563C4.37238 375.303 7.30004 372.368 10.553 372.368Z" fill="#969696"/>
<path d="M-47.024 409.539H26.8177V411.17H-47.024V409.539Z" fill="#969696"/>
<path d="M26.4923 416.387C23.0789 416.387 20.3118 413.613 20.3118 410.192C20.3118 406.77 23.0789 403.996 26.4923 403.996C29.9058 403.996 32.673 406.77 32.673 410.192C32.673 413.613 29.9058 416.387 26.4923 416.387Z" fill="#969696"/>
<path d="M323.16 697.782H393.424V699.413H323.16V697.782Z" fill="#969696"/>
<path d="M323.486 692.24C320.233 692.24 317.305 694.848 317.305 698.435C317.305 701.695 319.907 704.63 323.486 704.63C326.738 704.63 329.666 702.021 329.666 698.435C329.666 695.174 327.064 692.24 323.486 692.24Z" fill="#969696"/>
<path d="M393.098 692.24C396.351 692.24 399.279 694.848 399.279 698.435C399.279 701.695 396.677 704.63 393.098 704.63C389.846 704.63 386.918 702.021 386.918 698.435C387.243 695.174 389.846 692.24 393.098 692.24Z" fill="#969696"/>
<path d="M-19.0489 637.134L-47.0241 665.176V662.893L-19.6994 635.504H208.657V637.134H-19.0489Z" fill="#969696"/>
<path d="M208.331 642.351C204.918 642.351 202.151 639.578 202.151 636.156C202.151 632.734 204.918 629.961 208.331 629.961C211.745 629.961 214.512 632.734 214.512 636.156C214.512 639.578 211.745 642.351 208.331 642.351Z" fill="#969696"/>
<path d="M284.125 1000.05L166.369 882.01H31.697L-45.0723 805.385H-47.024V803.754H-44.4217L32.3476 880.38H167.019L284.776 998.416H438.314V1000.05H284.125Z" fill="#969696"/>
<path d="M438.314 992.873C441.567 992.873 444.495 995.482 444.495 999.068C444.495 1002.33 441.892 1005.26 438.314 1005.26C434.736 1005.26 432.134 1002.66 432.134 999.068C432.134 995.808 434.736 992.873 438.314 992.873Z" fill="#969696"/>
<path d="M444.82 819.405L354.063 728.433H82.4428L29.7452 781.256H-47.0241V779.625H29.0946L81.7922 726.802H354.714L446.121 818.427L444.82 819.405Z" fill="#969696"/>
<path d="M449.699 814.188C451.977 816.47 451.977 820.383 449.699 822.992C447.422 825.274 443.519 825.274 440.917 822.992C438.639 820.709 438.639 816.796 440.917 814.188C443.194 811.905 447.097 811.905 449.699 814.188Z" fill="#969696"/>
<path d="M198.898 822.014H43.0824V823.644H198.247L293.233 919.182H420.748L465.964 874.185L464.663 872.88L420.098 917.551H293.884L198.898 822.014Z" fill="#969696"/>
<path d="M43.4076 829.187C39.9941 829.187 37.227 826.414 37.227 822.992C37.227 819.571 39.9941 816.797 43.4076 816.797C46.821 816.797 49.5882 819.571 49.5882 822.992C49.5882 826.414 46.821 829.187 43.4076 829.187Z" fill="#969696"/>
<path d="M460.76 869.294C463.037 867.012 466.94 867.012 469.542 869.294C471.82 871.577 471.82 875.489 469.542 878.098C467.265 880.38 463.362 880.38 460.76 878.098C458.483 875.489 458.483 871.903 460.76 869.294Z" fill="#969696"/>
<path d="M257.126 782.56H96.1053V784.19H256.15L329.016 856.903H393.424V855.273H329.666L257.126 782.56Z" fill="#969696"/>
<path d="M96.4305 777.017C93.1776 777.017 90.25 779.626 90.25 783.212C90.25 786.473 92.8523 789.408 96.4305 789.408C100.009 789.408 102.611 786.799 102.611 783.212C102.286 779.952 99.6834 777.017 96.4305 777.017Z" fill="#969696"/>
<path d="M393.098 850.056C396.351 850.056 399.279 852.665 399.279 856.252C399.279 859.512 396.677 862.447 393.098 862.447C389.846 862.447 386.918 859.838 386.918 856.252C387.243 852.665 389.846 850.056 393.098 850.056Z" fill="#969696"/>
<path d="M344.304 581.051H35.2752V582.682H343.654L460.759 700.392L461.735 699.087L344.304 581.051Z" fill="#969696"/>
<path d="M35.6006 575.834C32.3476 575.834 29.42 578.442 29.42 582.029C29.42 585.29 32.0224 588.224 35.6006 588.224C38.8536 588.224 41.7812 585.616 41.7812 582.029C41.4559 578.442 38.8536 575.834 35.6006 575.834Z" fill="#969696"/>
<path d="M465.314 695.174C467.591 697.457 467.591 701.369 465.314 703.978C463.036 706.26 459.133 706.26 456.531 703.978C454.254 701.696 454.254 697.783 456.531 695.174C459.133 692.566 463.036 692.566 465.314 695.174Z" fill="#969696"/>
<path d="M-23.9282 502.469L-47.024 525.946V523.663L-24.5788 500.839H425.303V502.469H-23.9282Z" fill="#969696"/>
<path d="M424.977 508.012C421.564 508.012 418.797 505.238 418.797 501.817C418.797 498.395 421.564 495.621 424.977 495.621C428.391 495.621 431.158 498.395 431.158 501.817C431.158 505.238 428.391 508.012 424.977 508.012Z" fill="#969696"/>
<path d="M-20.6753 463.34L-47.0241 489.752V487.143L-21.6512 461.71H449.049V463.34H-20.6753Z" fill="#969696"/>
<path d="M448.724 468.558C445.31 468.558 442.543 465.784 442.543 462.362C442.543 458.941 445.31 456.167 448.724 456.167C452.137 456.167 454.904 458.941 454.904 462.362C454.904 465.784 452.137 468.558 448.724 468.558Z" fill="#969696"/>
<path d="M95.7798 185.532H-47.0241V183.901H95.1293L221.669 57.0615L222.644 58.0397L95.7798 185.532Z" fill="#969696"/>
<path d="M221.994 63.9091C218.58 63.9091 215.813 61.1354 215.813 57.7138C215.813 54.2923 218.58 51.5186 221.994 51.5186C225.407 51.5186 228.174 54.2923 228.174 57.7138C228.174 61.1354 225.407 63.9091 221.994 63.9091Z" fill="#969696"/>
<path d="M458.808 103.689H233.054L151.08 185.858L152.381 186.836L233.704 105.32H458.808V103.689Z" fill="#969696"/>
<path d="M147.502 181.946C145.224 184.228 145.224 188.141 147.502 190.749C149.779 193.032 153.682 193.032 156.284 190.749C158.562 188.467 158.562 184.554 156.284 181.946C154.007 179.337 150.104 179.337 147.502 181.946Z" fill="#969696"/>
<path d="M458.808 110.537C455.394 110.537 452.627 107.763 452.627 104.342C452.627 100.92 455.394 98.1462 458.808 98.1462C462.221 98.1462 464.988 100.92 464.988 104.342C464.988 107.763 462.221 110.537 458.808 110.537Z" fill="#969696"/>
</g>
<defs>
<radialGradient id="paint0_radial_117_20276" cx="0" cy="0" r="1" gradientUnits="userSpaceOnUse" gradientTransform="translate(2041.38 506.606) rotate(179.483) scale(308.092 393.989)">
<stop offset="0.2129" stop-color="#005E57"/>
<stop offset="0.361" stop-color="#003D38"/>
<stop offset="0.5136" stop-color="#002220"/>
<stop offset="0.6697" stop-color="#000F0E"/>
<stop offset="0.8298" stop-color="#000403"/>
<stop offset="1"/>
</radialGradient>
<radialGradient id="paint1_radial_117_20276" cx="0" cy="0" r="1" gradientUnits="userSpaceOnUse" gradientTransform="translate(-121.384 506.606) rotate(0.516521) scale(308.092 393.989)">
<stop offset="0.2129" stop-color="#005E57"/>
<stop offset="0.361" stop-color="#003D38"/>
<stop offset="0.5136" stop-color="#002220"/>
<stop offset="0.6697" stop-color="#000F0E"/>
<stop offset="0.8298" stop-color="#000403"/>
<stop offset="1"/>
</radialGradient>
<clipPath id="clip0_117_20276">
<rect width="478" height="1047" fill="white" transform="translate(1442)"/>
</clipPath>
<clipPath id="clip1_117_20276">
<rect width="478" height="1047" fill="white" transform="matrix(-1 0 0 1 478 0)"/>
</clipPath>
</defs>
</svg>
